<svg t="1618395502434" class="icon" viewBox="0 0 1024 1024" version="1.1" xmlns="http://www.w3.org/2000/svg" p-id="2064" width="NaN" height="NaN"><path d="M511.995 0.23C274.647 0.23 81.874 181.811 81.874 406.467c0 85.841 28.38 165.59 76.544 231.25 2.401 3.799 4.398 7.49 7.301 10.787l293.013 348.268c14.592 18.201 33.981 26.987 53.365 26.987 19.39 0 38.574-8.688 53.264-26.987l292.92-348.36c2.693-3.41 4.89-7.01 6.989-10.399 48.368-65.76 76.856-145.408 76.856-231.552C941.921 181.811 749.45 0.231 511.995 0.231z m0 568.74c-95.043 0-172.088-72.857-172.088-162.498 0-89.744 77.05-162.489 172.088-162.489 94.93 0 172.083 72.853 172.083 162.489-0.087 89.636-77.153 162.498-172.083 162.498z" p-id="2065" fill="#bfcbd9"></path></svg>