<svg t="1619664564551" class="icon" viewBox="0 0 1024 1024" version="1.1" xmlns="http://www.w3.org/2000/svg" p-id="14494" width="200" height="200"><path d="M409.6 450.56H153.6c-30.72 0-51.2-20.48-51.2-51.2v-256c0-30.72 20.48-51.2 51.2-51.2h256c30.72 0 51.2 20.48 51.2 51.2v256c0 30.72-20.48 51.2-51.2 51.2z m-204.8-102.4h153.6v-153.6H204.8v153.6zM870.4 450.56h-256c-30.72 0-51.2-20.48-51.2-51.2v-256c0-30.72 20.48-51.2 51.2-51.2h256c30.72 0 51.2 20.48 51.2 51.2v256c0 30.72-20.48 51.2-51.2 51.2z m-204.8-102.4h153.6v-153.6h-153.6v153.6zM409.6 911.36H153.6c-30.72 0-51.2-20.48-51.2-51.2v-256c0-30.72 20.48-51.2 51.2-51.2h256c30.72 0 51.2 20.48 51.2 51.2v256c0 30.72-20.48 51.2-51.2 51.2z m-204.8-102.4h153.6v-153.6H204.8v153.6zM870.4 911.36h-256c-30.72 0-51.2-20.48-51.2-51.2v-256c0-30.72 20.48-51.2 51.2-51.2h256c30.72 0 51.2 20.48 51.2 51.2v256c0 30.72-20.48 51.2-51.2 51.2z m-204.8-102.4h153.6v-153.6h-153.6v153.6z" fill="#bfcbd9" p-id="14495"></path></svg>