<svg t="1616770412829" class="icon" viewBox="0 0 1024 1024" version="1.1" xmlns="http://www.w3.org/2000/svg" p-id="4420" width="200" height="200"><path d="M755.2 534.4c-28.8 35.2-73.6 54.4-124.8 54.4-48 0-89.6-19.2-118.4-51.2-28.8 32-73.6 51.2-118.4 51.2-48 0-92.8-22.4-121.6-54.4-28.8 35.2-73.6 54.4-121.6 54.4h-9.6v294.4c0 32 25.6 57.6 57.6 57.6H832c32 0 57.6-25.6 57.6-57.6V588.8H880c-51.2 0-92.8-19.2-124.8-54.4z m128-435.2c-3.2-9.6-16-16-28.8-16h-688c-12.8 0-25.6 6.4-28.8 16l-19.2 54.4h784l-19.2-54.4z" p-id="4421" data-spm-anchor-id="a313x.7781069.0.i0" class="selected" fill="#bfcbd9"></path><path d="M992 400l-73.6-211.2H108.8L35.2 400c-3.2 6.4-3.2 9.6 0 16v9.6c0 67.2 54.4 118.4 118.4 118.4S268.8 492.8 272 428.8c3.2 64 54.4 115.2 118.4 115.2s115.2-51.2 118.4-115.2c3.2 64 54.4 115.2 118.4 115.2s115.2-51.2 118.4-115.2h3.2c3.2 64 54.4 115.2 118.4 115.2 67.2 0 118.4-54.4 118.4-118.4V416c6.4-6.4 6.4-9.6 6.4-16z" p-id="4422" data-spm-anchor-id="a313x.7781069.0.i4" class="selected" fill="#bfcbd9"></path></svg>